<svg width="50" height="50" viewBox="0 0 50 50" fill="none" xmlns="http://www.w3.org/2000/svg">
<circle cx="25" cy="25" r="24.359" stroke="#D7D7D7" stroke-width="1.28205"/>
<path d="M34.1888 17.0938H17.0948C15.9195 17.0938 14.9687 18.0553 14.9687 19.2305L14.958 32.051C14.958 33.2262 15.9195 34.1878 17.0948 34.1878H34.1888C35.364 34.1878 36.3255 33.2262 36.3255 32.051V19.2305C36.3255 18.0553 35.364 17.0938 34.1888 17.0938ZM33.7614 21.6343L26.208 26.3566C25.8661 26.5702 25.4174 26.5702 25.0755 26.3566L17.5221 21.6343C17.415 21.5742 17.3212 21.493 17.2464 21.3955C17.1715 21.2981 17.1173 21.1865 17.0868 21.0674C17.0564 20.9484 17.0504 20.8245 17.0693 20.7031C17.0881 20.5817 17.1314 20.4653 17.1966 20.3612C17.2617 20.257 17.3472 20.1671 17.4481 20.0969C17.549 20.0268 17.663 19.9778 17.7833 19.953C17.9036 19.9282 18.0278 19.9281 18.1481 19.9527C18.2685 19.9772 18.3826 20.0259 18.4836 20.0959L25.6418 24.5724L32.7999 20.0959C32.9009 20.0259 33.015 19.9772 33.1354 19.9527C33.2558 19.9281 33.3799 19.9282 33.5002 19.953C33.6205 19.9778 33.7346 20.0268 33.8354 20.0969C33.9363 20.1671 34.0219 20.257 34.087 20.3612C34.1521 20.4653 34.1954 20.5817 34.2143 20.7031C34.2331 20.8245 34.2271 20.9484 34.1967 21.0674C34.1663 21.1865 34.112 21.2981 34.0372 21.3955C33.9624 21.493 33.8686 21.5742 33.7614 21.6343Z" fill="#63666A"/>
</svg>
