<svg width="50" height="50" viewBox="0 0 50 50" fill="none" xmlns="http://www.w3.org/2000/svg">
<circle cx="25" cy="25" r="24.359" stroke="#D7D7D7" stroke-width="1.28205"/>
<path d="M33.3549 29.1345L30.6412 28.8247C29.9895 28.7499 29.3485 28.9742 28.8891 29.4336L26.9233 31.3994C23.8998 29.861 21.4211 27.393 19.8827 24.3588L21.8592 22.3823C22.0865 22.1553 22.2594 21.8797 22.3648 21.5762C22.4703 21.2727 22.5056 20.9493 22.4682 20.6302L22.1583 17.9379C22.0301 16.8588 21.122 16.0469 20.0323 16.0469H18.184C16.9767 16.0469 15.9724 17.0511 16.0472 18.2584C16.6135 27.3823 23.9105 34.6687 33.0237 35.2349C34.231 35.3097 35.2352 34.3054 35.2352 33.0982V31.2499C35.2459 30.1708 34.434 29.2627 33.3549 29.1345Z" fill="#63666A"/>
</svg>
